# xmcd CD database file
#
# Track frame offsets:
#	150
#	27210
#	64607
#	105992
#	132049
#	158761
#	181438
#	203634
#	218432
#	243505
#	269444
#	294912
#
# Disc length: 4219 seconds
#
# Revision: 0
# Processed by: cddbd v1.5.2PL0 Copyright (c) Steve Scherf et al.
# Submitted via: CDex 1.70beta2
#
DISCID=9d10790c
DTITLE=WILSON, Tony, 6TET [CDN-07-Jazz) - PEARLS BEFORE SWINE
DYEAR=2007
DGENRE=Jazz
TTITLE0=Ee-Gypt-Me
TTITLE1=Squirk
TTITLE2=Boo-Dat
TTITLE3=Innocent Objections
TTITLE4=I Am The Walrus
TTITLE5=Jesse's Tune
TTITLE6=For Fela Kuti #2
TTITLE7=Horn' in In
TTITLE8=A Bit More
TTITLE9=J.P.'s Tune
TTITLE10=Jim
TTITLE11=Junkyard Sea
EXTD=YEAR: 2007
EXTT0=
EXTT1=
EXTT2=
EXTT3=
EXTT4=
EXTT5=
EXTT6=
EXTT7=
EXTT8=
EXTT9=
EXTT10=
EXTT11=
PLAYORDER=
